<?xml version="1.0" encoding="utf-8"?>
<!-- Generator: Adobe Illustrator 24.1.2, SVG Export Plug-In . SVG Version: 6.00 Build 0)  -->
<svg version="1.1" id="Layer_1" xmlns="http://www.w3.org/2000/svg" xmlns:xlink="http://www.w3.org/1999/xlink" x="0px" y="0px"
	 viewBox="0 0 79.4 68.4" style="enable-background:new 0 0 79.4 68.4;" xml:space="preserve">
<style type="text/css">
	.st0{fill:#FFFFFF;stroke:#000000;stroke-width:4;stroke-miterlimit:10;}
	.st1{stroke:#000000;stroke-width:4;stroke-miterlimit:10;}
</style>
<path class="st0" d="M24.8,38.5L24.8,38.5c-9.3,0-16.8-7.6-16.8-16.8v0c0-9.3,7.6-16.8,16.8-16.8h0c9.3,0,16.8,7.6,16.8,16.8v0
	C41.6,31,34,38.5,24.8,38.5z"/>
<path class="st0" d="M136.8,60.1"/>
<path class="st0" d="M119.7,38.5"/>
<path class="st1" d="M68.7,60.9L68.7,60.9c-2.2,2.6-6.2,2.9-8.8,0.7L37.5,42.3c-2.6-2.2-2.9-6.2-0.7-8.8l0,0
	c2.2-2.6,6.2-2.9,8.8-0.7L68,52.1C70.6,54.3,70.9,58.3,68.7,60.9z"/>
</svg>
